<svg xmlns="http://www.w3.org/2000/svg" viewBox="0 0 512 512" fill="none">
  <defs>
    <linearGradient id="bg" x1="0" y1="0" x2="512" y2="512" gradientUnits="userSpaceOnUse">
      <stop offset="0%" stop-color="#2563EB"/>
      <stop offset="100%" stop-color="#1D4ED8"/>
    </linearGradient>
  </defs>
  <!-- Rounded square background -->
  <rect width="512" height="512" rx="96" ry="96" fill="url(#bg)"/>
  <!-- Phone handset icon -->
  <path d="M164.8 108.8c-12.8-12.8-33.6-12.8-46.4 0L91.2 136
    c-38.4 38.4-38.4 100.8 0 139.2L228.8 412.8
    c38.4 38.4 100.8 38.4 139.2 0l27.2-27.2
    c12.8-12.8 12.8-33.6 0-46.4l-56-56
    c-12.8-12.8-33.6-12.8-46.4 0l-13.6 13.6
    c-6.4 6.4-16.8 6.4-23.2 0L196.8 237.6
    c-6.4-6.4-6.4-16.8 0-23.2l13.6-13.6
    c12.8-12.8 12.8-33.6 0-46.4l-45.6-45.6z"
    fill="white" opacity="0.95"/>
</svg>
